<svg xmlns="http://www.w3.org/2000/svg" fill="none" viewBox="0 0 24 24" class="h-svgo-icon" style="fill:var(--neutral--1000);color:var(--neutral--1000);" data-v-09897765="" data-v-03dae1ca="">
    <path fill="currentColor" d="M17.957 10.457a1 1 0 0 0-1.414-1.414L12 13.586 7.457 9.043a1 1 0 0 0-1.414 1.414l5.25 5.25a1 1 0 0 0 1.414 0l5.25-5.25Z"></path>
    <path fill="currentColor" d="M17.957 10.457a1 1 0 0 0-1.414-1.414L12 13.586 7.457 9.043a1 1 0 0 0-1.414 1.414l5.25 5.25a1 1 0 0 0 1.414 0l5.25-5.25Z"></path>
</svg>